<?xml version="1.0" standalone="no"?>
<!DOCTYPE svg PUBLIC "-//W3C//DTD SVG 20010904//EN"
 "http://www.w3.org/TR/2001/REC-SVG-20010904/DTD/svg10.dtd">
<svg version="1.0" xmlns="http://www.w3.org/2000/svg"
 width="206.000000pt" height="206.000000pt" viewBox="0 0 206.000000 206.000000"
 preserveAspectRatio="xMidYMid meet">

<g transform="translate(0.000000,206.000000) scale(0.100000,-0.100000)"
fill="#000000" stroke="none">
<path d="M647 1668 c-118 -15 -232 -102 -285 -216 -32 -68 -42 -195 -22 -270
47 -172 222 -403 474 -621 143 -124 213 -174 228 -165 55 33 227 182 343 299
191 191 297 345 335 487 20 75 10 202 -22 270 -123 264 -489 297 -651 59 l-16
-25 -23 30 c-91 118 -215 171 -361 152z"/>
</g>
</svg>
